<svg width="2000px" height="535px"
 viewBox="0.00 0.00 2024.83 542.31" xmlns="http://www.w3.org/2000/svg" xmlns:xlink="http://www.w3.org/1999/xlink">
<g id="graph0" class="graph" transform="scale(1.0 1.0) rotate(0) translate(4 538.31)">
<title>ContextMapGraph</title>
<polygon fill="white" stroke="transparent" points="-4,4 -4,-538.31 2020.83,-538.31 2020.83,4 -4,4"/>
<!-- AtencionAlCliente -->
<g id="node1" class="node">
<title>AtencionAlCliente</title>
<polygon fill="none" stroke="black" stroke-width="2" points="1731.74,-378.83 1724.24,-377.41 1716.96,-375.9 1709.95,-374.29 1703.24,-372.6 1696.84,-370.84 1690.79,-369 1685.11,-367.1 1679.82,-365.14 1674.95,-363.13 1670.51,-361.07 1666.52,-358.97 1663,-356.84 1659.95,-354.68 1657.39,-352.5 1655.33,-350.31 1653.75,-348.11 1652.68,-345.9 1652.11,-343.7 1652.04,-341.5 1652.45,-339.32 1653.35,-337.15 1654.72,-335 1656.55,-332.89 1658.84,-330.8 1661.55,-328.75 1664.68,-326.74 1668.2,-324.78 1672.1,-322.86 1676.35,-320.99 1680.94,-319.18 1685.83,-317.42 1691.01,-315.73 1696.44,-314.1 1702.11,-312.54 1707.99,-311.04 1714.05,-309.62 1720.28,-308.28 1726.63,-307.01 1733.1,-305.82 1739.66,-304.72 1746.28,-303.69 1752.95,-302.76 1759.64,-301.92 1766.34,-301.17 1773.02,-300.51 1779.67,-299.95 1786.27,-299.48 1792.81,-299.11 1799.28,-298.85 1805.65,-298.69 1811.93,-298.63 1818.1,-298.68 1824.16,-298.83 1830.08,-299.09 1835.88,-299.46 1841.53,-299.94 1847.05,-300.52 1852.42,-301.22 1857.63,-302.02 1862.69,-302.93 1867.59,-303.95 1872.34,-305.08 1876.92,-306.31 1881.33,-307.64 1885.58,-309.08 1889.65,-310.61 1893.55,-312.24 1897.27,-313.96 1900.82,-315.76 1904.17,-317.65 1907.34,-319.63 1910.31,-321.67 1913.08,-323.79 1915.64,-325.96 1917.98,-328.2 1920.11,-330.49 1922,-332.82 1923.65,-335.19 1925.06,-337.6 1926.21,-340.02 1927.09,-342.46 1927.69,-344.91 1928.01,-347.36 1928.04,-349.8 1927.75,-352.22 1927.15,-354.62 1926.23,-356.99 1924.98,-359.32 1923.38,-361.59 1921.44,-363.81 1919.15,-365.97 1916.51,-368.05 1913.5,-370.06 1910.13,-371.98 1906.41,-373.8 1902.32,-375.53 1897.88,-377.15 1893.08,-378.66 1887.94,-380.05 1882.47,-381.32 1876.67,-382.47 1870.55,-383.49 1864.14,-384.37 1857.44,-385.12 1850.49,-385.74 1843.28,-386.22 1835.86,-386.56 1828.24,-386.76 1820.44,-386.82 1812.5,-386.74 1804.44,-386.52 1796.3,-386.17 1788.09,-385.68 1779.86,-385.07 1771.64,-384.33 1763.45,-383.46 1755.33,-382.47 1747.32,-381.37 1739.45,-380.15 1731.74,-378.83"/>
<text text-anchor="middle" x="1799.2" y="-337.39" font-family="sans-serif" font-size="16.00">AtencionAlCliente</text>
</g>
<!-- Usuario -->
<g id="node2" class="node">
<title>Usuario</title>
<polygon fill="none" stroke="black" stroke-width="2" points="1824.48,-153.32 1829.13,-154.24 1833.68,-155.28 1838.11,-156.42 1842.41,-157.66 1846.56,-159 1850.53,-160.42 1854.32,-161.94 1857.91,-163.54 1861.29,-165.22 1864.44,-166.97 1867.35,-168.79 1870.01,-170.67 1872.42,-172.6 1874.56,-174.59 1876.43,-176.62 1878.03,-178.7 1879.35,-180.81 1880.39,-182.95 1881.16,-185.11 1881.64,-187.29 1881.85,-189.49 1881.79,-191.69 1881.46,-193.9 1880.87,-196.1 1880.03,-198.29 1878.94,-200.48 1877.62,-202.64 1876.08,-204.78 1874.32,-206.89 1872.36,-208.97 1870.21,-211.02 1867.88,-213.02 1865.38,-214.97 1862.73,-216.87 1859.94,-218.72 1857.03,-220.51 1854,-222.23 1850.87,-223.88 1847.65,-225.47 1844.36,-226.97 1841,-228.4 1837.59,-229.74 1834.14,-231 1830.65,-232.17 1827.14,-233.24 1823.62,-234.22 1820.09,-235.1 1816.56,-235.87 1813.04,-236.54 1809.54,-237.11 1806.06,-237.56 1802.6,-237.91 1799.18,-238.14 1795.79,-238.26 1792.44,-238.26 1789.13,-238.15 1785.86,-237.92 1782.64,-237.58 1779.47,-237.11 1776.35,-236.53 1773.28,-235.84 1770.27,-235.03 1767.31,-234.1 1764.41,-233.07 1761.58,-231.92 1758.8,-230.67 1756.09,-229.31 1753.45,-227.85 1750.89,-226.29 1748.39,-224.64 1745.98,-222.89 1743.66,-221.06 1741.42,-219.15 1739.28,-217.16 1737.24,-215.1 1735.3,-212.98 1733.48,-210.8 1731.78,-208.56 1730.21,-206.28 1728.77,-203.96 1727.48,-201.61 1726.34,-199.23 1725.36,-196.83 1724.55,-194.42 1723.91,-192.01 1723.46,-189.61 1723.2,-187.21 1723.14,-184.84 1723.28,-182.49 1723.63,-180.17 1724.2,-177.9 1724.99,-175.67 1726.01,-173.51 1727.26,-171.4 1728.74,-169.36 1730.45,-167.4 1732.4,-165.52 1734.58,-163.72 1736.99,-162.02 1739.62,-160.42 1742.48,-158.92 1745.56,-157.53 1748.84,-156.25 1752.33,-155.08 1756.01,-154.03 1759.86,-153.1 1763.89,-152.3 1768.08,-151.62 1772.4,-151.07 1776.86,-150.64 1781.42,-150.34 1786.08,-150.17 1790.81,-150.13 1795.6,-150.22 1800.43,-150.43 1805.28,-150.76 1810.13,-151.22 1814.96,-151.8 1819.75,-152.5 1824.48,-153.32"/>
<text text-anchor="middle" x="1799.2" y="-190.95" font-family="sans-serif" font-size="16.00">Usuario</text>
</g>
<!-- AtencionAlCliente&#45;&gt;Usuario -->
<g id="edge1" class="edge">
<title>AtencionAlCliente&#45;&gt;Usuario</title>
<path fill="none" stroke="black" stroke-width="2" d="M1799.2,-298.8C1799.2,-279.79 1799.2,-257.28 1799.2,-238.15"/>
<text text-anchor="middle" x="1841.2" y="-264.9" font-family="sans-serif" font-size="12.00">Shared Kernel</text>
</g>
<!-- InicioAutentificacion -->
<g id="node3" class="node">
<title>InicioAutentificacion</title>
<polygon fill="none" stroke="black" stroke-width="2" points="1893.44,-5.84 1902.79,-6.53 1911.97,-7.33 1920.96,-8.24 1929.71,-9.26 1938.2,-10.38 1946.37,-11.61 1954.22,-12.93 1961.69,-14.34 1968.77,-15.84 1975.43,-17.43 1981.64,-19.09 1987.39,-20.83 1992.65,-22.65 1997.41,-24.52 2001.66,-26.46 2005.38,-28.45 2008.57,-30.48 2011.23,-32.57 2013.35,-34.69 2014.93,-36.84 2015.98,-39.02 2016.51,-41.22 2016.51,-43.44 2016,-45.67 2015,-47.91 2013.52,-50.14 2011.57,-52.37 2009.18,-54.59 2006.37,-56.78 2003.14,-58.96 1999.54,-61.11 1995.57,-63.23 1991.27,-65.31 1986.66,-67.34 1981.75,-69.33 1976.59,-71.26 1971.18,-73.13 1965.55,-74.95 1959.74,-76.69 1953.75,-78.36 1947.61,-79.96 1941.34,-81.48 1934.97,-82.91 1928.5,-84.25 1921.96,-85.5 1915.37,-86.66 1908.74,-87.71 1902.08,-88.67 1895.41,-89.52 1888.74,-90.26 1882.08,-90.89 1875.44,-91.42 1868.82,-91.82 1862.24,-92.11 1855.7,-92.29 1849.2,-92.35 1842.76,-92.28 1836.37,-92.1 1830.05,-91.8 1823.79,-91.39 1817.6,-90.85 1811.48,-90.19 1805.44,-89.42 1799.48,-88.54 1793.61,-87.54 1787.82,-86.43 1782.14,-85.21 1776.56,-83.88 1771.1,-82.46 1765.75,-80.93 1760.54,-79.32 1755.46,-77.61 1750.54,-75.81 1745.77,-73.94 1741.19,-71.99 1736.79,-69.97 1732.6,-67.88 1728.63,-65.73 1724.9,-63.54 1721.42,-61.29 1718.22,-59.01 1715.3,-56.69 1712.68,-54.35 1710.4,-51.99 1708.45,-49.62 1706.86,-47.24 1705.65,-44.86 1704.84,-42.49 1704.43,-40.14 1704.44,-37.81 1704.89,-35.51 1705.79,-33.25 1707.14,-31.03 1708.96,-28.86 1711.26,-26.75 1714.03,-24.71 1717.28,-22.73 1721.01,-20.83 1725.21,-19.01 1729.89,-17.27 1735.03,-15.63 1740.63,-14.08 1746.67,-12.63 1753.13,-11.29 1760,-10.05 1767.27,-8.93 1774.89,-7.92 1782.86,-7.03 1791.15,-6.25 1799.71,-5.6 1808.53,-5.07 1817.58,-4.66 1826.8,-4.38 1836.18,-4.22 1845.67,-4.19 1855.23,-4.27 1864.83,-4.49 1874.42,-4.82 1883.97,-5.27 1893.44,-5.84"/>
<text text-anchor="middle" x="1856.2" y="-44.7" font-family="sans-serif" font-size="16.00">InicioAutentificacion</text>
</g>
<!-- Usuario&#45;&gt;InicioAutentificacion -->
<g id="edge2" class="edge">
<title>Usuario&#45;&gt;InicioAutentificacion</title>
<path fill="none" stroke="black" stroke-width="2" d="M1815.84,-151.64C1823.2,-133.01 1831.85,-111.13 1839.25,-92.41"/>
<text text-anchor="middle" x="1904.7" y="-118.4" font-family="sans-serif" font-size="12.00"> &#160;&#160;&#160;&#160;&#160;&#160;&#160;&#160;&#160;&#160;&#160;&#160;&#160;&#160;&#160;&#160;&#160;&#160;&#160;&#160;&#160;&#160;&#160;&#160;&#160;&#160;&#160;&#160;&#160;&#160;&#160;&#160;&#160;&#160;&#160;&#160;&#160;&#160;&#160;</text>
<polygon fill="white" stroke="transparent" points="1832.25,-83.41 1832.25,-100.41 1846.25,-100.41 1846.25,-83.41 1832.25,-83.41"/>
<text text-anchor="start" x="1834.25" y="-88.81" font-family="sans-serif" font-size="12.00">D</text>
<polygon fill="white" stroke="transparent" points="1808.84,-142.64 1808.84,-159.64 1822.84,-159.64 1822.84,-142.64 1808.84,-142.64"/>
<text text-anchor="start" x="1810.84" y="-148.04" font-family="sans-serif" font-size="12.00">U</text>
</g>
<!-- ComercioOnline -->
<g id="node4" class="node">
<title>ComercioOnline</title>
<polygon fill="none" stroke="black" stroke-width="2" points="1280.3,-380.06 1273.14,-378.76 1266.19,-377.37 1259.47,-375.89 1253.01,-374.31 1246.83,-372.66 1240.96,-370.92 1235.42,-369.12 1230.24,-367.24 1225.44,-365.31 1221.03,-363.33 1217.03,-361.3 1213.46,-359.22 1210.32,-357.12 1207.63,-354.98 1205.4,-352.82 1203.62,-350.64 1202.31,-348.45 1201.45,-346.25 1201.06,-344.05 1201.12,-341.86 1201.64,-339.67 1202.59,-337.5 1203.98,-335.35 1205.78,-333.22 1207.99,-331.12 1210.59,-329.06 1213.57,-327.03 1216.89,-325.04 1220.56,-323.09 1224.53,-321.2 1228.8,-319.36 1233.34,-317.57 1238.13,-315.84 1243.15,-314.18 1248.37,-312.58 1253.78,-311.06 1259.34,-309.6 1265.03,-308.22 1270.85,-306.92 1276.75,-305.7 1282.73,-304.56 1288.76,-303.51 1294.83,-302.55 1300.92,-301.68 1307,-300.91 1313.08,-300.23 1319.12,-299.65 1325.12,-299.17 1331.06,-298.79 1336.94,-298.52 1342.74,-298.35 1348.46,-298.29 1354.08,-298.34 1359.6,-298.49 1365.02,-298.76 1370.32,-299.14 1375.51,-299.63 1380.58,-300.24 1385.53,-300.95 1390.34,-301.78 1395.03,-302.71 1399.58,-303.76 1404,-304.91 1408.28,-306.17 1412.42,-307.53 1416.42,-309 1420.26,-310.56 1423.96,-312.22 1427.5,-313.96 1430.89,-315.8 1434.11,-317.72 1437.15,-319.72 1440.03,-321.79 1442.72,-323.92 1445.22,-326.12 1447.52,-328.38 1449.61,-330.68 1451.49,-333.03 1453.14,-335.41 1454.56,-337.82 1455.74,-340.24 1456.65,-342.69 1457.31,-345.13 1457.69,-347.58 1457.78,-350.01 1457.58,-352.42 1457.07,-354.81 1456.25,-357.16 1455.11,-359.47 1453.64,-361.72 1451.84,-363.92 1449.7,-366.06 1447.21,-368.12 1444.38,-370.1 1441.19,-371.99 1437.67,-373.79 1433.79,-375.49 1429.58,-377.08 1425.02,-378.56 1420.14,-379.93 1414.94,-381.18 1409.44,-382.31 1403.63,-383.31 1397.55,-384.18 1391.2,-384.91 1384.6,-385.52 1377.78,-385.98 1370.75,-386.32 1363.55,-386.51 1356.19,-386.57 1348.7,-386.49 1341.11,-386.28 1333.45,-385.94 1325.74,-385.47 1318.02,-384.86 1310.32,-384.14 1302.66,-383.29 1295.09,-382.32 1287.62,-381.24 1280.3,-380.06"/>
<text text-anchor="middle" x="1337.2" y="-337.39" font-family="sans-serif" font-size="16.00">ComercioOnline</text>
</g>
<!-- ComercioOnline&#45;&gt;Usuario -->
<g id="edge4" class="edge">
<title>ComercioOnline&#45;&gt;Usuario</title>
<path fill="none" stroke="black" stroke-width="2" d="M1426.79,-313.45C1465.95,-301.66 1512.4,-287.54 1554.2,-274.5 1616.9,-254.94 1688.38,-231.87 1737.88,-215.78"/>
<text text-anchor="middle" x="1670.7" y="-264.9" font-family="sans-serif" font-size="12.00"> &#160;&#160;&#160;&#160;&#160;&#160;&#160;&#160;&#160;&#160;&#160;&#160;&#160;&#160;&#160;&#160;&#160;&#160;&#160;&#160;&#160;&#160;&#160;&#160;&#160;&#160;&#160;&#160;&#160;&#160;&#160;&#160;&#160;&#160;&#160;&#160;&#160;&#160;&#160;</text>
<polygon fill="white" stroke="transparent" points="1730.88,-206.78 1730.88,-223.78 1744.88,-223.78 1744.88,-206.78 1730.88,-206.78"/>
<text text-anchor="start" x="1732.88" y="-212.18" font-family="sans-serif" font-size="12.00">D</text>
<polygon fill="white" stroke="transparent" points="1419.79,-304.45 1419.79,-321.45 1433.79,-321.45 1433.79,-304.45 1419.79,-304.45"/>
<text text-anchor="start" x="1421.79" y="-309.85" font-family="sans-serif" font-size="12.00">U</text>
</g>
<!-- GestiondeContenido -->
<g id="node5" class="node">
<title>GestiondeContenido</title>
<polygon fill="none" stroke="black" stroke-width="2" points="812.09,-163.96 818.95,-165.99 825.49,-168.09 831.65,-170.25 837.43,-172.47 842.8,-174.74 847.73,-177.05 852.2,-179.38 856.2,-181.75 859.7,-184.12 862.7,-186.51 865.17,-188.89 867.11,-191.26 868.51,-193.62 869.37,-195.96 869.68,-198.27 869.45,-200.55 868.68,-202.79 867.36,-204.98 865.52,-207.12 863.16,-209.21 860.29,-211.24 856.93,-213.21 853.09,-215.11 848.8,-216.94 844.07,-218.7 838.93,-220.38 833.4,-221.99 827.51,-223.52 821.27,-224.97 814.73,-226.33 807.91,-227.62 800.83,-228.82 793.53,-229.94 786.03,-230.97 778.37,-231.91 770.57,-232.77 762.67,-233.55 754.69,-234.23 746.66,-234.83 738.6,-235.34 730.55,-235.76 722.53,-236.09 714.56,-236.34 706.66,-236.49 698.86,-236.56 691.18,-236.53 683.64,-236.41 676.25,-236.21 669.03,-235.91 662,-235.52 655.16,-235.03 648.54,-234.46 642.13,-233.79 635.95,-233.02 630.01,-232.16 624.32,-231.21 618.87,-230.17 613.68,-229.03 608.75,-227.8 604.08,-226.48 599.67,-225.06 595.53,-223.56 591.66,-221.97 588.06,-220.29 584.73,-218.53 581.67,-216.69 578.88,-214.77 576.36,-212.78 574.12,-210.72 572.15,-208.59 570.45,-206.4 569.03,-204.16 567.89,-201.86 567.03,-199.52 566.46,-197.15 566.17,-194.74 566.17,-192.31 566.45,-189.86 567.04,-187.41 567.92,-184.95 569.11,-182.5 570.6,-180.07 572.4,-177.66 574.51,-175.29 576.94,-172.95 579.69,-170.67 582.76,-168.45 586.16,-166.3 589.87,-164.22 593.92,-162.23 598.28,-160.33 602.97,-158.53 607.97,-156.84 613.29,-155.26 618.91,-153.81 624.84,-152.49 631.06,-151.29 637.57,-150.24 644.34,-149.33 651.37,-148.56 658.65,-147.95 666.15,-147.48 673.85,-147.17 681.75,-147.02 689.81,-147.02 698.01,-147.18 706.33,-147.49 714.74,-147.95 723.22,-148.56 731.73,-149.32 740.25,-150.23 748.75,-151.27 757.19,-152.45 765.54,-153.75 773.78,-155.19 781.87,-156.73 789.78,-158.39 797.47,-160.16 804.92,-162.01 812.09,-163.96"/>
<text text-anchor="middle" x="706.2" y="-190.95" font-family="sans-serif" font-size="16.00">GestiondeContenido</text>
</g>
<!-- ComercioOnline&#45;&gt;GestiondeContenido -->
<g id="edge3" class="edge">
<title>ComercioOnline&#45;&gt;GestiondeContenido</title>
<path fill="none" stroke="black" stroke-width="2" d="M1255.49,-310.53C1235.02,-303.88 1212.98,-297.36 1192.2,-292.5 1137.12,-279.61 1121.87,-284.55 1066.2,-274.5 985.46,-259.92 895.26,-240.19 825.35,-224.12"/>
<text text-anchor="middle" x="1141.7" y="-264.9" font-family="sans-serif" font-size="12.00"> &#160;&#160;&#160;&#160;&#160;&#160;&#160;&#160;&#160;&#160;&#160;&#160;&#160;&#160;&#160;&#160;&#160;&#160;&#160;&#160;&#160;&#160;&#160;&#160;&#160;&#160;&#160;&#160;&#160;&#160;&#160;&#160;&#160;&#160;&#160;&#160;&#160;&#160;&#160;</text>
<polygon fill="white" stroke="transparent" points="818.35,-215.12 818.35,-232.12 832.35,-232.12 832.35,-215.12 818.35,-215.12"/>
<text text-anchor="start" x="820.35" y="-220.52" font-family="sans-serif" font-size="12.00">D</text>
<polygon fill="white" stroke="transparent" points="1248.49,-301.53 1248.49,-318.53 1262.49,-318.53 1262.49,-301.53 1248.49,-301.53"/>
<text text-anchor="start" x="1250.49" y="-306.93" font-family="sans-serif" font-size="12.00">U</text>
</g>
<!-- GestionDeInventarios -->
<g id="node8" class="node">
<title>GestionDeInventarios</title>
<polygon fill="none" stroke="black" stroke-width="2" points="1259.41,-223.22 1252.95,-225.41 1246.21,-227.52 1239.21,-229.52 1231.97,-231.41 1224.54,-233.18 1216.93,-234.83 1209.16,-236.35 1201.28,-237.73 1193.29,-238.96 1185.24,-240.05 1177.14,-240.98 1169.01,-241.76 1160.89,-242.38 1152.8,-242.83 1144.75,-243.12 1136.78,-243.25 1128.89,-243.22 1121.11,-243.02 1113.46,-242.66 1105.95,-242.15 1098.6,-241.48 1091.42,-240.67 1084.43,-239.7 1077.64,-238.6 1071.07,-237.36 1064.72,-235.99 1058.59,-234.51 1052.71,-232.91 1047.08,-231.2 1041.71,-229.39 1036.6,-227.5 1031.76,-225.52 1027.19,-223.47 1022.91,-221.35 1018.91,-219.18 1015.2,-216.97 1011.78,-214.71 1008.66,-212.42 1005.84,-210.11 1003.33,-207.79 1001.12,-205.46 999.23,-203.13 997.65,-200.8 996.39,-198.5 995.46,-196.21 994.85,-193.95 994.57,-191.72 994.62,-189.53 995.01,-187.38 995.74,-185.28 996.81,-183.23 998.22,-181.23 999.98,-179.29 1002.09,-177.4 1004.55,-175.58 1007.35,-173.83 1010.51,-172.13 1014.01,-170.51 1017.86,-168.95 1022.06,-167.47 1026.6,-166.05 1031.47,-164.7 1036.68,-163.43 1042.21,-162.22 1048.06,-161.09 1054.21,-160.03 1060.66,-159.04 1067.39,-158.13 1074.39,-157.29 1081.65,-156.53 1089.14,-155.84 1096.86,-155.23 1104.77,-154.7 1112.87,-154.24 1121.12,-153.87 1129.5,-153.57 1138,-153.36 1146.58,-153.24 1155.21,-153.2 1163.87,-153.24 1172.54,-153.38 1181.18,-153.61 1189.75,-153.93 1198.24,-154.34 1206.61,-154.86 1214.83,-155.47 1222.88,-156.18 1230.71,-156.99 1238.31,-157.9 1245.63,-158.92 1252.66,-160.04 1259.37,-161.26 1265.73,-162.59 1271.72,-164.01 1277.31,-165.54 1282.48,-167.17 1287.21,-168.9 1291.49,-170.72 1295.29,-172.63 1298.6,-174.63 1301.41,-176.72 1303.72,-178.88 1305.5,-181.12 1306.75,-183.43 1307.48,-185.8 1307.68,-188.23 1307.36,-190.7 1306.51,-193.21 1305.13,-195.76 1303.25,-198.33 1300.87,-200.91 1297.99,-203.5 1294.65,-206.08 1290.84,-208.65 1286.59,-211.2 1281.91,-213.71 1276.83,-216.18 1271.38,-218.59 1265.56,-220.94 1259.41,-223.22"/>
<text text-anchor="middle" x="1142.2" y="-190.95" font-family="sans-serif" font-size="16.00">GestionDeInventarios</text>
</g>
<!-- ComercioOnline&#45;&gt;GestionDeInventarios -->
<g id="edge5" class="edge">
<title>ComercioOnline&#45;&gt;GestionDeInventarios</title>
<path fill="none" stroke="black" stroke-width="2" d="M1280.92,-304.78C1266.45,-295.26 1251.07,-284.75 1237.2,-274.5 1222.39,-263.55 1206.81,-251.07 1192.65,-239.32"/>
<text text-anchor="middle" x="1312.7" y="-264.9" font-family="sans-serif" font-size="12.00"> &#160;&#160;&#160;&#160;&#160;&#160;&#160;&#160;&#160;&#160;&#160;&#160;&#160;&#160;&#160;&#160;&#160;&#160;&#160;&#160;&#160;&#160;&#160;&#160;&#160;&#160;&#160;&#160;&#160;&#160;&#160;&#160;&#160;&#160;&#160;&#160;&#160;&#160;&#160;</text>
<polygon fill="white" stroke="transparent" points="1185.65,-230.32 1185.65,-247.32 1199.65,-247.32 1199.65,-230.32 1185.65,-230.32"/>
<text text-anchor="start" x="1187.65" y="-235.72" font-family="sans-serif" font-size="12.00">D</text>
<polygon fill="white" stroke="transparent" points="1273.92,-295.78 1273.92,-312.78 1287.92,-312.78 1287.92,-295.78 1273.92,-295.78"/>
<text text-anchor="start" x="1275.92" y="-301.18" font-family="sans-serif" font-size="12.00">U</text>
</g>
<!-- GestionDeEnvios -->
<g id="node9" class="node">
<title>GestionDeEnvios</title>
<polygon fill="none" stroke="black" stroke-width="2" points="1325.59,-194.26 1325.56,-191.4 1325.89,-188.55 1326.56,-185.74 1327.59,-182.97 1328.96,-180.26 1330.69,-177.6 1332.75,-175.02 1335.16,-172.53 1337.89,-170.12 1340.95,-167.82 1344.33,-165.63 1348.01,-163.55 1351.99,-161.6 1356.26,-159.78 1360.81,-158.09 1365.61,-156.53 1370.67,-155.12 1375.96,-153.86 1381.47,-152.73 1387.19,-151.76 1393.1,-150.93 1399.17,-150.25 1405.4,-149.72 1411.77,-149.33 1418.26,-149.08 1424.84,-148.97 1431.51,-149 1438.23,-149.16 1445,-149.44 1451.79,-149.85 1458.58,-150.37 1465.36,-151.01 1472.09,-151.75 1478.77,-152.59 1485.38,-153.53 1491.89,-154.55 1498.29,-155.66 1504.56,-156.85 1510.68,-158.11 1516.63,-159.43 1522.4,-160.82 1527.97,-162.27 1533.33,-163.76 1538.46,-165.3 1543.34,-166.89 1547.97,-168.51 1552.33,-170.17 1556.4,-171.86 1560.19,-173.58 1563.67,-175.33 1566.85,-177.1 1569.7,-178.89 1572.23,-180.7 1574.43,-182.53 1576.3,-184.37 1577.82,-186.23 1579,-188.11 1579.83,-189.99 1580.31,-191.89 1580.45,-193.8 1580.23,-195.71 1579.68,-197.63 1578.78,-199.56 1577.54,-201.49 1575.96,-203.43 1574.05,-205.36 1571.82,-207.29 1569.28,-209.22 1566.42,-211.14 1563.26,-213.05 1559.81,-214.94 1556.07,-216.82 1552.06,-218.67 1547.79,-220.49 1543.27,-222.28 1538.52,-224.04 1533.54,-225.75 1528.35,-227.41 1522.96,-229.01 1517.39,-230.56 1511.65,-232.03 1505.75,-233.43 1499.72,-234.75 1493.57,-235.97 1487.31,-237.11 1480.96,-238.13 1474.53,-239.05 1468.05,-239.86 1461.53,-240.54 1454.99,-241.1 1448.44,-241.52 1441.9,-241.81 1435.38,-241.95 1428.92,-241.94 1422.51,-241.79 1416.18,-241.48 1409.95,-241.02 1403.82,-240.4 1397.83,-239.62 1391.97,-238.69 1386.28,-237.6 1380.76,-236.36 1375.43,-234.97 1370.3,-233.43 1365.39,-231.74 1360.72,-229.91 1356.28,-227.96 1352.1,-225.87 1348.19,-223.67 1344.56,-221.35 1341.22,-218.94 1338.19,-216.43 1335.46,-213.83 1333.04,-211.17 1330.96,-208.44 1329.2,-205.66 1327.78,-202.84 1326.7,-199.99 1325.97,-197.13 1325.59,-194.26"/>
<text text-anchor="middle" x="1453.2" y="-190.95" font-family="sans-serif" font-size="16.00">GestionDeEnvios</text>
</g>
<!-- ComercioOnline&#45;&gt;GestionDeEnvios -->
<g id="edge6" class="edge">
<title>ComercioOnline&#45;&gt;GestionDeEnvios</title>
<path fill="none" stroke="black" stroke-width="2" d="M1370.44,-298.8C1384.77,-280.96 1401.58,-260.03 1416.29,-241.71"/>
<text text-anchor="middle" x="1474.7" y="-264.9" font-family="sans-serif" font-size="12.00"> &#160;&#160;&#160;&#160;&#160;&#160;&#160;&#160;&#160;&#160;&#160;&#160;&#160;&#160;&#160;&#160;&#160;&#160;&#160;&#160;&#160;&#160;&#160;&#160;&#160;&#160;&#160;&#160;&#160;&#160;&#160;&#160;&#160;&#160;&#160;&#160;&#160;&#160;&#160;</text>
<polygon fill="white" stroke="transparent" points="1409.29,-232.71 1409.29,-249.71 1423.29,-249.71 1423.29,-232.71 1409.29,-232.71"/>
<text text-anchor="start" x="1411.29" y="-238.11" font-family="sans-serif" font-size="12.00">D</text>
<polygon fill="white" stroke="transparent" points="1363.44,-289.8 1363.44,-306.8 1377.44,-306.8 1377.44,-289.8 1363.44,-289.8"/>
<text text-anchor="start" x="1365.44" y="-295.2" font-family="sans-serif" font-size="12.00">U</text>
</g>
<!-- OptimizadorDeMotoresDeBusqueda -->
<g id="node6" class="node">
<title>OptimizadorDeMotoresDeBusqueda</title>
<polygon fill="none" stroke="black" stroke-width="2" points="60.42,-73.29 51.58,-70.95 43.33,-68.55 35.7,-66.1 28.73,-63.63 22.45,-61.12 16.89,-58.6 12.07,-56.07 8.02,-53.55 4.75,-51.03 2.29,-48.54 0.63,-46.07 -0.2,-43.64 -0.2,-41.24 0.62,-38.9 2.27,-36.62 4.74,-34.39 8.02,-32.23 12.1,-30.15 16.96,-28.14 22.58,-26.21 28.93,-24.36 36,-22.6 43.74,-20.93 52.14,-19.36 61.15,-17.87 70.73,-16.48 80.85,-15.19 91.47,-13.99 102.54,-12.89 114.02,-11.88 125.86,-10.97 138.03,-10.15 150.46,-9.43 163.11,-8.8 175.95,-8.27 188.92,-7.83 201.97,-7.48 215.06,-7.21 228.15,-7.04 241.2,-6.95 254.16,-6.96 266.99,-7.04 279.66,-7.21 292.12,-7.47 304.35,-7.81 316.32,-8.23 327.99,-8.73 339.33,-9.31 350.32,-9.98 360.94,-10.73 371.16,-11.55 380.97,-12.46 390.35,-13.45 399.29,-14.52 407.77,-15.67 415.78,-16.9 423.31,-18.2 430.36,-19.59 436.92,-21.05 442.99,-22.59 448.56,-24.21 453.63,-25.9 458.2,-27.66 462.27,-29.49 465.84,-31.39 468.92,-33.36 471.5,-35.39 473.58,-37.47 475.18,-39.61 476.28,-41.81 476.9,-44.04 477.04,-46.32 476.69,-48.64 475.87,-50.98 474.57,-53.34 472.79,-55.72 470.55,-58.11 467.83,-60.5 464.64,-62.88 460.99,-65.25 456.87,-67.6 452.29,-69.91 447.25,-72.18 441.76,-74.41 435.8,-76.57 429.4,-78.67 422.55,-80.7 415.26,-82.64 407.54,-84.49 399.39,-86.23 390.81,-87.88 381.84,-89.4 372.46,-90.8 362.7,-92.08 352.57,-93.21 342.09,-94.21 331.28,-95.06 320.15,-95.76 308.73,-96.31 297.05,-96.7 285.12,-96.93 272.99,-97 260.67,-96.91 248.2,-96.65 235.62,-96.23 222.96,-95.66 210.26,-94.93 197.56,-94.04 184.89,-93 172.31,-91.81 159.84,-90.49 147.55,-89.02 135.46,-87.43 123.63,-85.72 112.09,-83.89 100.9,-81.95 90.09,-79.91 79.72,-77.78 69.81,-75.57 60.42,-73.29"/>
<text text-anchor="middle" x="254.2" y="-44.7" font-family="sans-serif" font-size="16.00">OptimizadorDeMotoresDeBusqueda</text>
</g>
<!-- GestiondeContenido&#45;&gt;OptimizadorDeMotoresDeBusqueda -->
<g id="edge7" class="edge">
<title>GestiondeContenido&#45;&gt;OptimizadorDeMotoresDeBusqueda</title>
<path fill="none" stroke="black" stroke-width="2" d="M599.66,-159.75C533.89,-138.76 449.17,-111.72 380.1,-89.68"/>
<text text-anchor="middle" x="569.7" y="-118.4" font-family="sans-serif" font-size="12.00"> &#160;&#160;&#160;&#160;&#160;&#160;&#160;&#160;&#160;&#160;&#160;&#160;&#160;&#160;&#160;&#160;&#160;&#160;&#160;&#160;&#160;&#160;&#160;&#160;&#160;&#160;&#160;&#160;&#160;&#160;&#160;&#160;&#160;&#160;&#160;&#160;&#160;&#160;&#160;</text>
<polygon fill="white" stroke="transparent" points="373.1,-80.68 373.1,-97.68 387.1,-97.68 387.1,-80.68 373.1,-80.68"/>
<text text-anchor="start" x="375.1" y="-86.08" font-family="sans-serif" font-size="12.00">D</text>
<polygon fill="white" stroke="transparent" points="592.66,-150.75 592.66,-167.75 606.66,-167.75 606.66,-150.75 592.66,-150.75"/>
<text text-anchor="start" x="594.66" y="-156.15" font-family="sans-serif" font-size="12.00">U</text>
</g>
<!-- SocialMediaIntegration -->
<g id="node7" class="node">
<title>SocialMediaIntegration</title>
<polygon fill="none" stroke="black" stroke-width="2" points="785.78,-86.85 776.62,-88.29 767.29,-89.62 757.83,-90.83 748.29,-91.92 738.69,-92.87 729.08,-93.69 719.49,-94.37 709.95,-94.91 700.49,-95.3 691.16,-95.54 681.97,-95.63 672.97,-95.57 664.17,-95.37 655.59,-95.01 647.28,-94.5 639.24,-93.85 631.49,-93.04 624.06,-92.1 616.95,-91.02 610.19,-89.8 603.78,-88.45 597.73,-86.98 592.06,-85.39 586.76,-83.68 581.83,-81.87 577.3,-79.96 573.14,-77.96 569.37,-75.87 565.98,-73.71 562.96,-71.48 560.32,-69.19 558.05,-66.84 556.15,-64.46 554.6,-62.04 553.41,-59.6 552.56,-57.14 552.06,-54.67 551.88,-52.2 552.03,-49.74 552.5,-47.3 553.29,-44.88 554.38,-42.49 555.77,-40.14 557.46,-37.84 559.44,-35.58 561.71,-33.39 564.26,-31.25 567.1,-29.19 570.21,-27.19 573.6,-25.27 577.26,-23.44 581.2,-21.68 585.4,-20.02 589.87,-18.44 594.61,-16.96 599.61,-15.57 604.88,-14.28 610.4,-13.09 616.18,-11.99 622.22,-10.99 628.5,-10.09 635.02,-9.29 641.79,-8.59 648.78,-7.99 655.99,-7.49 663.41,-7.09 671.03,-6.78 678.84,-6.58 686.82,-6.47 694.95,-6.45 703.23,-6.53 711.62,-6.7 720.11,-6.97 728.68,-7.33 737.31,-7.78 745.96,-8.32 754.62,-8.94 763.25,-9.66 771.83,-10.46 780.33,-11.35 788.71,-12.33 796.95,-13.38 805.01,-14.52 812.86,-15.74 820.48,-17.04 827.82,-18.42 834.86,-19.88 841.57,-21.41 847.91,-23.01 853.85,-24.69 859.37,-26.43 864.45,-28.24 869.04,-30.11 873.14,-32.05 876.72,-34.04 879.76,-36.08 882.24,-38.17 884.15,-40.31 885.47,-42.49 886.2,-44.71 886.33,-46.95 885.85,-49.23 884.77,-51.52 883.08,-53.82 880.79,-56.14 877.9,-58.45 874.44,-60.76 870.41,-63.05 865.82,-65.32 860.7,-67.57 855.06,-69.78 848.94,-71.95 842.35,-74.07 835.32,-76.13 827.89,-78.12 820.08,-80.04 811.93,-81.88 803.48,-83.63 794.75,-85.29 785.78,-86.85"/>
<text text-anchor="middle" x="706.2" y="-44.7" font-family="sans-serif" font-size="16.00">SocialMediaIntegration</text>
</g>
<!-- GestiondeContenido&#45;&gt;SocialMediaIntegration -->
<g id="edge8" class="edge">
<title>GestiondeContenido&#45;&gt;SocialMediaIntegration</title>
<path fill="none" stroke="black" stroke-width="2" d="M706.2,-147.31C706.2,-130.68 706.2,-111.94 706.2,-95.35"/>
<text text-anchor="middle" x="781.7" y="-118.4" font-family="sans-serif" font-size="12.00"> &#160;&#160;&#160;&#160;&#160;&#160;&#160;&#160;&#160;&#160;&#160;&#160;&#160;&#160;&#160;&#160;&#160;&#160;&#160;&#160;&#160;&#160;&#160;&#160;&#160;&#160;&#160;&#160;&#160;&#160;&#160;&#160;&#160;&#160;&#160;&#160;&#160;&#160;&#160;</text>
<polygon fill="white" stroke="transparent" points="699.2,-86.35 699.2,-103.35 713.2,-103.35 713.2,-86.35 699.2,-86.35"/>
<text text-anchor="start" x="701.2" y="-91.75" font-family="sans-serif" font-size="12.00">D</text>
<polygon fill="white" stroke="transparent" points="699.2,-138.31 699.2,-155.31 713.2,-155.31 713.2,-138.31 699.2,-138.31"/>
<text text-anchor="start" x="701.2" y="-143.71" font-family="sans-serif" font-size="12.00">U</text>
</g>
<!-- ServicioDeGeocalizacion -->
<g id="node10" class="node">
<title>ServicioDeGeocalizacion</title>
<polygon fill="none" stroke="black" stroke-width="2" points="1016.14,-9.64 1026.05,-8.29 1036.11,-7.05 1046.29,-5.94 1056.55,-4.95 1066.85,-4.09 1077.14,-3.37 1087.39,-2.78 1097.57,-2.34 1107.64,-2.04 1117.56,-1.89 1127.3,-1.88 1136.83,-2.02 1146.13,-2.31 1155.16,-2.75 1163.9,-3.33 1172.32,-4.06 1180.42,-4.93 1188.16,-5.94 1195.54,-7.08 1202.54,-8.35 1209.14,-9.75 1215.35,-11.27 1221.14,-12.91 1226.53,-14.65 1231.49,-16.5 1236.04,-18.44 1240.17,-20.47 1243.88,-22.58 1247.18,-24.76 1250.06,-27.01 1252.55,-29.31 1254.63,-31.66 1256.32,-34.05 1257.63,-36.46 1258.56,-38.9 1259.12,-41.36 1259.32,-43.81 1259.17,-46.27 1258.68,-48.71 1257.84,-51.14 1256.68,-53.53 1255.2,-55.9 1253.41,-58.22 1251.3,-60.5 1248.9,-62.72 1246.19,-64.88 1243.2,-66.98 1239.91,-69 1236.34,-70.96 1232.49,-72.83 1228.36,-74.62 1223.95,-76.33 1219.27,-77.94 1214.32,-79.47 1209.1,-80.9 1203.61,-82.23 1197.86,-83.46 1191.84,-84.6 1185.57,-85.64 1179.04,-86.57 1172.27,-87.41 1165.25,-88.14 1157.99,-88.77 1150.5,-89.3 1142.8,-89.73 1134.88,-90.06 1126.77,-90.29 1118.47,-90.42 1110,-90.46 1101.38,-90.4 1092.63,-90.24 1083.76,-89.99 1074.8,-89.65 1065.77,-89.21 1056.7,-88.68 1047.61,-88.06 1038.52,-87.36 1029.48,-86.57 1020.5,-85.69 1011.62,-84.72 1002.88,-83.68 994.29,-82.55 985.91,-81.34 977.76,-80.05 969.87,-78.69 962.28,-77.25 955.02,-75.74 948.13,-74.15 941.63,-72.5 935.56,-70.78 929.95,-68.99 924.82,-67.15 920.21,-65.24 916.13,-63.28 912.61,-61.27 909.67,-59.21 907.33,-57.11 905.6,-54.96 904.5,-52.78 904.03,-50.58 904.2,-48.34 905.02,-46.09 906.48,-43.82 908.58,-41.54 911.32,-39.27 914.69,-37 918.68,-34.73 923.26,-32.49 928.43,-30.28 934.16,-28.09 940.44,-25.95 947.22,-23.85 954.49,-21.81 962.21,-19.82 970.35,-17.91 978.88,-16.08 987.77,-14.33 996.96,-12.66 1006.44,-11.1 1016.14,-9.64"/>
<text text-anchor="middle" x="1095.2" y="-44.7" font-family="sans-serif" font-size="16.00">ServicioDeGeocalizacion</text>
</g>
<!-- GestionDeEnvios&#45;&gt;ServicioDeGeocalizacion -->
<g id="edge9" class="edge">
<title>GestionDeEnvios&#45;&gt;ServicioDeGeocalizacion</title>
<path fill="none" stroke="black" stroke-width="2" d="M1362.86,-157.35C1308.49,-135.44 1239.52,-107.65 1185.2,-85.76"/>
<text text-anchor="middle" x="1360.7" y="-118.4" font-family="sans-serif" font-size="12.00"> &#160;&#160;&#160;&#160;&#160;&#160;&#160;&#160;&#160;&#160;&#160;&#160;&#160;&#160;&#160;&#160;&#160;&#160;&#160;&#160;&#160;&#160;&#160;&#160;&#160;&#160;&#160;&#160;&#160;&#160;&#160;&#160;&#160;&#160;&#160;&#160;&#160;&#160;&#160;</text>
<polygon fill="white" stroke="transparent" points="1178.2,-76.76 1178.2,-93.76 1192.2,-93.76 1192.2,-76.76 1178.2,-76.76"/>
<text text-anchor="start" x="1180.2" y="-82.16" font-family="sans-serif" font-size="12.00">D</text>
<polygon fill="white" stroke="transparent" points="1355.86,-148.35 1355.86,-165.35 1369.86,-165.35 1369.86,-148.35 1355.86,-148.35"/>
<text text-anchor="start" x="1357.86" y="-153.75" font-family="sans-serif" font-size="12.00">U</text>
</g>
<!-- EmailServicesIntegration -->
<g id="node11" class="node">
<title>EmailServicesIntegration</title>
<polygon fill="none" stroke="black" stroke-width="2" points="1468.04,-91.91 1456.74,-91.57 1445.57,-91.11 1434.59,-90.54 1423.82,-89.85 1413.33,-89.05 1403.14,-88.14 1393.31,-87.13 1383.85,-86 1374.82,-84.78 1366.25,-83.46 1358.15,-82.04 1350.57,-80.53 1343.52,-78.94 1337.03,-77.26 1331.12,-75.51 1325.79,-73.68 1321.06,-71.78 1316.94,-69.83 1313.43,-67.81 1310.54,-65.75 1308.25,-63.63 1306.58,-61.48 1305.51,-59.29 1305.03,-57.08 1305.13,-54.84 1305.79,-52.58 1307,-50.31 1308.74,-48.04 1310.99,-45.77 1313.72,-43.51 1316.92,-41.26 1320.55,-39.03 1324.6,-36.82 1329.04,-34.65 1333.84,-32.51 1338.97,-30.42 1344.41,-28.38 1350.14,-26.39 1356.13,-24.46 1362.35,-22.59 1368.79,-20.79 1375.41,-19.07 1382.21,-17.43 1389.15,-15.87 1396.22,-14.4 1403.39,-13.02 1410.67,-11.74 1418.02,-10.56 1425.44,-9.48 1432.91,-8.5 1440.43,-7.64 1447.97,-6.88 1455.54,-6.24 1463.13,-5.71 1470.72,-5.31 1478.31,-5.01 1485.9,-4.84 1493.49,-4.79 1501.05,-4.85 1508.6,-5.04 1516.13,-5.35 1523.62,-5.77 1531.08,-6.31 1538.5,-6.97 1545.87,-7.74 1553.19,-8.63 1560.45,-9.62 1567.63,-10.73 1574.73,-11.93 1581.74,-13.24 1588.64,-14.65 1595.42,-16.15 1602.06,-17.74 1608.55,-19.42 1614.87,-21.17 1621,-23.01 1626.93,-24.91 1632.62,-26.88 1638.06,-28.91 1643.22,-31 1648.08,-33.14 1652.62,-35.31 1656.82,-37.53 1660.64,-39.77 1664.07,-42.05 1667.07,-44.33 1669.64,-46.63 1671.74,-48.94 1673.35,-51.24 1674.45,-53.54 1675.03,-55.82 1675.07,-58.09 1674.54,-60.32 1673.45,-62.52 1671.78,-64.69 1669.51,-66.81 1666.65,-68.87 1663.19,-70.88 1659.13,-72.83 1654.47,-74.71 1649.23,-76.52 1643.41,-78.25 1637.02,-79.89 1630.08,-81.45 1622.61,-82.92 1614.63,-84.29 1606.16,-85.56 1597.24,-86.73 1587.89,-87.79 1578.15,-88.75 1568.05,-89.59 1557.64,-90.32 1546.95,-90.93 1536.02,-91.43 1524.9,-91.81 1513.64,-92.07 1502.27,-92.21 1490.85,-92.23 1479.42,-92.13 1468.04,-91.91"/>
<text text-anchor="middle" x="1491.2" y="-44.7" font-family="sans-serif" font-size="16.00">EmailServicesIntegration</text>
</g>
<!-- GestionDeEnvios&#45;&gt;EmailServicesIntegration -->
<g id="edge10" class="edge">
<title>GestionDeEnvios&#45;&gt;EmailServicesIntegration</title>
<path fill="none" stroke="black" stroke-width="2" d="M1464.5,-150.86C1469.36,-132.42 1475.02,-110.92 1479.88,-92.47"/>
<text text-anchor="middle" x="1549.7" y="-118.4" font-family="sans-serif" font-size="12.00"> &#160;&#160;&#160;&#160;&#160;&#160;&#160;&#160;&#160;&#160;&#160;&#160;&#160;&#160;&#160;&#160;&#160;&#160;&#160;&#160;&#160;&#160;&#160;&#160;&#160;&#160;&#160;&#160;&#160;&#160;&#160;&#160;&#160;&#160;&#160;&#160;&#160;&#160;&#160;</text>
<polygon fill="white" stroke="transparent" points="1472.88,-83.47 1472.88,-100.47 1486.88,-100.47 1486.88,-83.47 1472.88,-83.47"/>
<text text-anchor="start" x="1474.88" y="-88.87" font-family="sans-serif" font-size="12.00">D</text>
<polygon fill="white" stroke="transparent" points="1457.5,-141.86 1457.5,-158.86 1471.5,-158.86 1471.5,-141.86 1457.5,-141.86"/>
<text text-anchor="start" x="1459.5" y="-147.26" font-family="sans-serif" font-size="12.00">U</text>
</g>
<!-- GestionDePagos -->
<g id="node12" class="node">
<title>GestionDePagos</title>
<polygon fill="none" stroke="black" stroke-width="2" points="1336.83,-446.59 1344.23,-447.75 1351.45,-449.01 1358.44,-450.37 1365.19,-451.83 1371.67,-453.37 1377.84,-455 1383.69,-456.71 1389.19,-458.49 1394.31,-460.33 1399.05,-462.23 1403.38,-464.19 1407.29,-466.2 1410.76,-468.26 1413.79,-470.35 1416.36,-472.47 1418.48,-474.62 1420.12,-476.79 1421.31,-478.98 1422.03,-481.17 1422.29,-483.37 1422.09,-485.57 1421.45,-487.76 1420.37,-489.94 1418.87,-492.11 1416.95,-494.25 1414.63,-496.37 1411.94,-498.46 1408.88,-500.52 1405.47,-502.53 1401.74,-504.51 1397.71,-506.43 1393.39,-508.31 1388.82,-510.13 1384.01,-511.89 1378.98,-513.59 1373.76,-515.22 1368.37,-516.78 1362.83,-518.27 1357.16,-519.69 1351.39,-521.02 1345.53,-522.27 1339.6,-523.44 1333.63,-524.51 1327.62,-525.5 1321.6,-526.39 1315.58,-527.18 1309.57,-527.88 1303.6,-528.47 1297.66,-528.96 1291.77,-529.34 1285.95,-529.62 1280.2,-529.79 1274.52,-529.85 1268.93,-529.79 1263.43,-529.62 1258.02,-529.34 1252.72,-528.95 1247.52,-528.44 1242.43,-527.82 1237.45,-527.08 1232.59,-526.23 1227.85,-525.27 1223.22,-524.2 1218.72,-523.02 1214.35,-521.73 1210.1,-520.34 1205.99,-518.84 1202.02,-517.25 1198.19,-515.57 1194.51,-513.79 1190.98,-511.93 1187.61,-509.99 1184.41,-507.97 1181.38,-505.88 1178.54,-503.72 1175.89,-501.5 1173.43,-499.24 1171.19,-496.92 1169.18,-494.57 1167.39,-492.18 1165.85,-489.77 1164.56,-487.34 1163.54,-484.9 1162.8,-482.46 1162.35,-480.03 1162.19,-477.6 1162.35,-475.2 1162.83,-472.83 1163.64,-470.5 1164.79,-468.21 1166.28,-465.97 1168.12,-463.8 1170.33,-461.69 1172.89,-459.65 1175.82,-457.69 1179.11,-455.83 1182.77,-454.05 1186.78,-452.37 1191.15,-450.8 1195.87,-449.34 1200.92,-447.99 1206.31,-446.76 1212.02,-445.65 1218.02,-444.66 1224.32,-443.81 1230.88,-443.08 1237.68,-442.48 1244.71,-442.02 1251.95,-441.69 1259.36,-441.49 1266.92,-441.42 1274.6,-441.49 1282.38,-441.69 1290.22,-442.02 1298.09,-442.48 1305.96,-443.06 1313.81,-443.77 1321.59,-444.6 1329.27,-445.54 1336.83,-446.59"/>
<text text-anchor="middle" x="1285.2" y="-482.8" font-family="sans-serif" font-size="16.00">GestionDePagos</text>
</g>
<!-- GestionDePagos&#45;&gt;ComercioOnline -->
<g id="edge11" class="edge">
<title>GestionDePagos&#45;&gt;ComercioOnline</title>
<path fill="none" stroke="black" stroke-width="2" d="M1300.81,-442.57C1307.39,-424.42 1315.03,-403.33 1321.61,-385.19"/>
<text text-anchor="middle" x="1355.2" y="-411.28" font-family="sans-serif" font-size="12.00">Shared Kernel</text>
</g>
<!-- PaymentGateway -->
<g id="node13" class="node">
<title>PaymentGateway</title>
<polygon fill="none" stroke="black" stroke-width="2" points="1166.09,-360.28 1162.48,-362.89 1158.56,-365.44 1154.35,-367.91 1149.86,-370.29 1145.11,-372.57 1140.12,-374.74 1134.91,-376.79 1129.48,-378.71 1123.86,-380.51 1118.06,-382.16 1112.11,-383.67 1106.02,-385.03 1099.81,-386.23 1093.49,-387.27 1087.08,-388.15 1080.6,-388.86 1074.07,-389.41 1067.5,-389.8 1060.91,-390.02 1054.32,-390.07 1047.74,-389.96 1041.18,-389.69 1034.66,-389.27 1028.2,-388.7 1021.82,-387.98 1015.51,-387.12 1009.3,-386.12 1003.2,-384.99 997.23,-383.74 991.38,-382.38 985.69,-380.91 980.15,-379.34 974.79,-377.68 969.6,-375.94 964.61,-374.12 959.81,-372.23 955.23,-370.28 950.87,-368.28 946.75,-366.24 942.86,-364.16 939.22,-362.05 935.84,-359.92 932.73,-357.77 929.89,-355.62 927.33,-353.46 925.06,-351.3 923.09,-349.15 921.43,-347.01 920.07,-344.89 919.03,-342.78 918.31,-340.7 917.91,-338.65 917.85,-336.63 918.11,-334.64 918.72,-332.68 919.66,-330.76 920.94,-328.88 922.56,-327.04 924.52,-325.24 926.82,-323.48 929.46,-321.76 932.43,-320.09 935.72,-318.46 939.34,-316.87 943.28,-315.34 947.53,-313.85 952.08,-312.41 956.92,-311.03 962.03,-309.69 967.42,-308.41 973.07,-307.19 978.95,-306.02 985.06,-304.92 991.38,-303.88 997.89,-302.9 1004.58,-302 1011.42,-301.16 1018.39,-300.4 1025.48,-299.73 1032.66,-299.13 1039.92,-298.63 1047.21,-298.21 1054.54,-297.89 1061.86,-297.67 1069.17,-297.55 1076.42,-297.54 1083.61,-297.63 1090.71,-297.85 1097.68,-298.18 1104.52,-298.62 1111.19,-299.2 1117.68,-299.89 1123.96,-300.71 1130.01,-301.66 1135.81,-302.74 1141.35,-303.94 1146.6,-305.28 1151.55,-306.73 1156.17,-308.32 1160.47,-310.02 1164.42,-311.85 1168,-313.79 1171.22,-315.84 1174.06,-318 1176.51,-320.25 1178.57,-322.6 1180.23,-325.04 1181.49,-327.55 1182.35,-330.13 1182.8,-332.77 1182.86,-335.47 1182.51,-338.2 1181.76,-340.97 1180.63,-343.76 1179.11,-346.55 1177.22,-349.35 1174.96,-352.13 1172.34,-354.88 1169.38,-357.6 1166.09,-360.28"/>
<text text-anchor="middle" x="1047.2" y="-337.39" font-family="sans-serif" font-size="16.00">PaymentGateway</text>
</g>
<!-- GestionDePagos&#45;&gt;PaymentGateway -->
<g id="edge12" class="edge">
<title>GestionDePagos&#45;&gt;PaymentGateway</title>
<path fill="none" stroke="black" stroke-width="2" d="M1203.28,-447.43C1187.08,-439.16 1170.4,-430.11 1155.2,-420.88 1137.75,-410.28 1119.54,-397.67 1103.15,-385.69"/>
<text text-anchor="middle" x="1230.7" y="-411.28" font-family="sans-serif" font-size="12.00"> &#160;&#160;&#160;&#160;&#160;&#160;&#160;&#160;&#160;&#160;&#160;&#160;&#160;&#160;&#160;&#160;&#160;&#160;&#160;&#160;&#160;&#160;&#160;&#160;&#160;&#160;&#160;&#160;&#160;&#160;&#160;&#160;&#160;&#160;&#160;&#160;&#160;&#160;&#160;</text>
<polygon fill="white" stroke="transparent" points="1096.15,-376.69 1096.15,-393.69 1110.15,-393.69 1110.15,-376.69 1096.15,-376.69"/>
<text text-anchor="start" x="1098.15" y="-382.09" font-family="sans-serif" font-size="12.00">D</text>
<polygon fill="white" stroke="transparent" points="1196.28,-438.43 1196.28,-455.43 1210.28,-455.43 1210.28,-438.43 1196.28,-438.43"/>
<text text-anchor="start" x="1198.28" y="-443.83" font-family="sans-serif" font-size="12.00">U</text>
</g>
<!-- GestionDePoliticasEmpresariales -->
<g id="node14" class="node">
<title>GestionDePoliticasEmpresariales</title>
<polygon fill="none" stroke="black" stroke-width="2" points="2015.98,-484.78 2016.77,-487.66 2016.96,-490.53 2016.55,-493.37 2015.52,-496.18 2013.89,-498.93 2011.65,-501.64 2008.81,-504.27 2005.38,-506.82 2001.36,-509.29 1996.76,-511.66 1991.6,-513.93 1985.88,-516.09 1979.63,-518.12 1972.86,-520.04 1965.58,-521.82 1957.82,-523.47 1949.6,-524.98 1940.95,-526.35 1931.88,-527.58 1922.42,-528.67 1912.61,-529.6 1902.47,-530.4 1892.03,-531.05 1881.32,-531.56 1870.38,-531.92 1859.23,-532.15 1847.9,-532.25 1836.44,-532.21 1824.88,-532.05 1813.25,-531.76 1801.58,-531.36 1789.92,-530.84 1778.28,-530.22 1766.72,-529.49 1755.26,-528.67 1743.94,-527.75 1732.79,-526.75 1721.84,-525.67 1711.13,-524.51 1700.67,-523.29 1690.52,-521.99 1680.69,-520.64 1671.2,-519.23 1662.1,-517.77 1653.4,-516.27 1645.12,-514.72 1637.29,-513.13 1629.93,-511.5 1623.06,-509.84 1616.69,-508.14 1610.84,-506.42 1605.53,-504.67 1600.76,-502.89 1596.55,-501.09 1592.91,-499.27 1589.85,-497.42 1587.36,-495.56 1585.46,-493.68 1584.15,-491.78 1583.43,-489.86 1583.29,-487.93 1583.74,-485.98 1584.76,-484.03 1586.37,-482.06 1588.54,-480.08 1591.28,-478.1 1594.56,-476.12 1598.39,-474.13 1602.74,-472.15 1607.61,-470.17 1612.98,-468.2 1618.84,-466.25 1625.16,-464.31 1631.94,-462.4 1639.15,-460.52 1646.77,-458.66 1654.78,-456.85 1663.16,-455.09 1671.89,-453.38 1680.95,-451.72 1690.32,-450.13 1699.96,-448.62 1709.86,-447.19 1719.99,-445.84 1730.32,-444.59 1740.84,-443.44 1751.5,-442.39 1762.3,-441.47 1773.19,-440.66 1784.16,-439.98 1795.17,-439.44 1806.2,-439.03 1817.22,-438.77 1828.2,-438.66 1839.12,-438.7 1849.94,-438.9 1860.65,-439.25 1871.2,-439.76 1881.58,-440.43 1891.76,-441.26 1901.71,-442.26 1911.4,-443.41 1920.81,-444.71 1929.92,-446.17 1938.69,-447.78 1947.11,-449.53 1955.14,-451.42 1962.78,-453.45 1969.99,-455.59 1976.75,-457.86 1983.04,-460.23 1988.86,-462.7 1994.16,-465.26 1998.95,-467.9 2003.2,-470.61 2006.9,-473.37 2010.04,-476.19 2012.61,-479.03 2014.59,-481.9 2015.98,-484.78"/>
<text text-anchor="middle" x="1799.2" y="-482.8" font-family="sans-serif" font-size="16.00">GestionDePoliticasEmpresariales</text>
</g>
<!-- GestionDePoliticasEmpresariales&#45;&gt;AtencionAlCliente -->
<g id="edge13" class="edge">
<title>GestionDePoliticasEmpresariales&#45;&gt;AtencionAlCliente</title>
<path fill="none" stroke="black" stroke-width="2" d="M1799.2,-439.04C1799.2,-422.19 1799.2,-403.22 1799.2,-386.57"/>
<text text-anchor="middle" x="1841.2" y="-411.28" font-family="sans-serif" font-size="12.00">Shared Kernel</text>
</g>
</g>
</svg>
